<?xml version="1.0" encoding="UTF-8" standalone="no"?>
<svg
   xmlns:dc="http://purl.org/dc/elements/1.1/"
   xmlns:cc="http://creativecommons.org/ns#"
   xmlns:rdf="http://www.w3.org/1999/02/22-rdf-syntax-ns#"
   xmlns:svg="http://www.w3.org/2000/svg"
   xmlns="http://www.w3.org/2000/svg"
   xmlns:sodipodi="http://sodipodi.sourceforge.net/DTD/sodipodi-0.dtd"
   xmlns:inkscape="http://www.inkscape.org/namespaces/inkscape"
   width="199.05701mm"
   height="30.550064mm"
   viewBox="0 0 199.05701 30.550064"
   version="1.1"
   id="svg8"
   inkscape:version="1.0.1 (3bc2e813f5, 2020-09-07)"
   sodipodi:docname="join_cross_inner_left.svg">
  <defs
     id="defs2" />
  <sodipodi:namedview
     id="base"
     pagecolor="#ffffff"
     bordercolor="#666666"
     borderopacity="1.0"
     inkscape:pageopacity="0.0"
     inkscape:pageshadow="2"
     inkscape:zoom="1.4"
     inkscape:cx="360.84192"
     inkscape:cy="163.63149"
     inkscape:document-units="mm"
     inkscape:current-layer="layer1"
     inkscape:document-rotation="0"
     showgrid="false"
     inkscape:window-width="1920"
     inkscape:window-height="1017"
     inkscape:window-x="-8"
     inkscape:window-y="-8"
     inkscape:window-maximized="1"
     fit-margin-top="0"
     fit-margin-left="0"
     fit-margin-right="0"
     fit-margin-bottom="0" />
  <metadata
     id="metadata5">
    <rdf:RDF>
      <cc:Work
         rdf:about="">
        <dc:format>image/svg+xml</dc:format>
        <dc:type
           rdf:resource="http://purl.org/dc/dcmitype/StillImage" />
        <dc:title></dc:title>
      </cc:Work>
    </rdf:RDF>
  </metadata>
  <g
     inkscape:label="Layer 1"
     inkscape:groupmode="layer"
     id="layer1"
     transform="translate(-5.9144515,-5.9144554)">
    <path
       style="fill:none;stroke:#737373;stroke-width:0.919552;stroke-miterlimit:4;stroke-dasharray:none;stop-color:#000000"
       id="path842"
       sodipodi:type="arc"
       sodipodi:cx="25.175516"
       sodipodi:cy="20.50592"
       sodipodi:rx="18.801275"
       sodipodi:ry="14.131677"
       sodipodi:start="4.7213949"
       sodipodi:end="4.720976"
       sodipodi:open="true"
       sodipodi:arc-type="arc"
       d="M 25.344837,6.3748168 A 18.801275,14.131677 0 0 1 43.976047,20.631708 18.801275,14.131677 0 0 1 25.010133,34.63705 18.801275,14.131677 0 0 1 6.3749511,20.383093 18.801275,14.131677 0 0 1 25.336961,6.3747647" />
    <path
       style="fill:none;stroke:#737373;stroke-width:0.919552;stroke-miterlimit:4;stroke-dasharray:none;stop-color:#000000"
       id="path844"
       sodipodi:type="arc"
       sodipodi:cx="44.639378"
       sodipodi:cy="20.50592"
       sodipodi:rx="18.801275"
       sodipodi:ry="14.131677"
       sodipodi:start="4.7213949"
       sodipodi:end="4.720976"
       sodipodi:open="true"
       sodipodi:arc-type="arc"
       d="M 44.808698,6.3748168 A 18.801275,14.131677 0 0 1 63.439908,20.631708 18.801275,14.131677 0 0 1 44.473995,34.63705 18.801275,14.131677 0 0 1 25.838813,20.383093 18.801275,14.131677 0 0 1 44.800823,6.3747647" />
    <path
       style="fill:none;stroke:#737373;stroke-width:0.919552;stroke-miterlimit:4;stroke-dasharray:none;stop-color:#000000"
       id="path846"
       sodipodi:type="arc"
       sodipodi:cx="94.973717"
       sodipodi:cy="21.580372"
       sodipodi:rx="18.801275"
       sodipodi:ry="14.131677"
       sodipodi:start="4.7213949"
       sodipodi:end="4.720976"
       sodipodi:open="true"
       sodipodi:arc-type="arc"
       d="M 95.143037,7.4492683 A 18.801275,14.131677 0 0 1 113.77425,21.706159 18.801275,14.131677 0 0 1 94.808334,35.711502 18.801275,14.131677 0 0 1 76.173152,21.457544 18.801275,14.131677 0 0 1 95.135162,7.4492162" />
    <path
       style="fill:none;stroke:#737373;stroke-width:0.919552;stroke-miterlimit:4;stroke-dasharray:none;stop-color:#000000"
       id="path848"
       sodipodi:type="arc"
       sodipodi:cx="114.43759"
       sodipodi:cy="21.580372"
       sodipodi:rx="18.801275"
       sodipodi:ry="14.131677"
       sodipodi:start="4.7213949"
       sodipodi:end="4.720976"
       sodipodi:open="true"
       sodipodi:arc-type="arc"
       d="M 114.60691,7.4492683 A 18.801275,14.131677 0 0 1 133.23812,21.706159 18.801275,14.131677 0 0 1 114.27221,35.711502 18.801275,14.131677 0 0 1 95.637026,21.457544 18.801275,14.131677 0 0 1 114.59904,7.4492162" />
    <path
       style="fill:none;stroke:#737373;stroke-width:0.919552;stroke-miterlimit:4;stroke-dasharray:none;stop-color:#000000"
       id="path850"
       sodipodi:type="arc"
       sodipodi:cx="166.24652"
       sodipodi:cy="21.873055"
       sodipodi:rx="18.801275"
       sodipodi:ry="14.131677"
       sodipodi:start="4.7213949"
       sodipodi:end="4.720976"
       sodipodi:open="true"
       sodipodi:arc-type="arc"
       d="M 166.41584,7.7419509 A 18.801275,14.131677 0 0 1 185.04705,21.998842 18.801275,14.131677 0 0 1 166.08114,36.004184 18.801275,14.131677 0 0 1 147.44596,21.750227 18.801275,14.131677 0 0 1 166.40797,7.7418988" />
    <path
       style="fill:none;stroke:#737373;stroke-width:0.919552;stroke-miterlimit:4;stroke-dasharray:none;stop-color:#000000"
       id="path852"
       sodipodi:type="arc"
       sodipodi:cx="185.71039"
       sodipodi:cy="21.873055"
       sodipodi:rx="18.801275"
       sodipodi:ry="14.131677"
       sodipodi:start="4.7213949"
       sodipodi:end="4.720976"
       sodipodi:open="true"
       sodipodi:arc-type="arc"
       d="M 185.87971,7.7419509 A 18.801275,14.131677 0 0 1 204.51092,21.998842 18.801275,14.131677 0 0 1 185.54501,36.004184 18.801275,14.131677 0 0 1 166.90982,21.750227 18.801275,14.131677 0 0 1 185.87183,7.7418988" />
    <path
       style="fill:#be4b3c;fill-opacity:1;stroke:none;stroke-width:0.928886;stroke-miterlimit:4;stroke-dasharray:none;stop-color:#000000"
       d="m 24.982069,6.9289278 c -6.529549,-0.0182 -13.622651,2.815841 -16.9004121,8.7401362 -2.3129474,4.077597 -1.1272412,9.385218 2.1313831,12.590543 5.321326,5.497807 13.752994,6.935931 20.981038,5.093282 0.543297,-0.285634 1.93426,-0.13593 1.923306,-0.957178 -1.703396,-1.388399 -3.658439,-2.57549 -4.958744,-4.420943 -3.116036,-3.576379 -3.737777,-9.130385 -1.211386,-13.189894 1.424703,-2.551938 3.716222,-4.437968 6.092846,-6.0554032 0.416221,-0.753319 -1.036586,-0.786768 -1.444368,-0.984034 -2.148769,-0.610389 -4.384039,-0.843298 -6.613663,-0.816509 z"
       id="path854" />
    <path
       style="fill:#be4b3c;fill-opacity:1;stroke:none;stroke-width:0.928886;stroke-miterlimit:4;stroke-dasharray:none;stop-color:#000000"
       d="m 34.826719,9.1264438 c -2.997443,1.1699572 -5.528781,3.5455172 -7.18344,6.2930132 -2.187258,4.064272 -1.429335,9.411416 1.844223,12.682028 1.530581,1.626475 3.411585,3.000701 5.434741,3.897732 4.315633,-1.995636 8.266894,-5.996797 8.526048,-10.987091 0.21191,-5.272793 -3.738297,-10.091195 -8.523647,-11.8852032 l -0.08928,-10e-4 z"
       id="path856" />
    <path
       style="fill:#be4b3c;fill-opacity:1;stroke:none;stroke-width:0.928886;stroke-miterlimit:4;stroke-dasharray:none;stop-color:#000000"
       d="m 44.080954,6.9145298 c -2.522662,0.09345 -5.201687,0.34526 -7.490654,1.434768 -0.05211,0.805651 1.285459,0.921534 1.721053,1.478297 3.777081,2.6743872 6.648421,7.1537292 6.023049,11.9179942 -0.429783,4.623637 -3.940148,8.250308 -7.71146,10.585798 -0.436113,0.703256 1.054916,0.665389 1.441488,0.896668 7.057793,1.93852 15.341134,0.743646 20.872545,-4.279822 3.389708,-3.029649 5.15919,-8.19876 3.115784,-12.46794 C 59.051878,9.6374898 51.094411,6.7707048 44.080954,6.9145298 Z"
       id="path858" />
    <path
       style="fill:#be4b3c;fill-opacity:1;stroke:none;stroke-width:0.928886;stroke-miterlimit:4;stroke-dasharray:none;stop-color:#000000"
       d="m 104.64796,9.9496698 c -4.19406,2.2324872 -8.198292,6.0498972 -8.443003,11.0802142 -0.329641,5.336165 3.771672,9.995007 8.459333,11.957686 2.52499,-0.777066 4.50857,-2.832529 6.20612,-4.781922 2.78314,-3.263497 3.15486,-8.187536 0.93892,-11.85112 -1.58821,-2.863129 -4.28762,-4.968396 -7.16137,-6.4048582 z"
       id="path860" />
    <path
       style="fill:#be4b3c;fill-opacity:1;stroke:none;stroke-width:0.928886;stroke-miterlimit:4;stroke-dasharray:none;stop-color:#000000"
       d="m 165.31193,8.4289778 c -5.4834,-0.106638 -11.08002,2.2143082 -14.65202,6.4134972 -2.76722,3.180389 -3.60283,7.994594 -1.53653,11.758477 2.92446,5.586721 9.40508,8.512168 15.49238,8.776626 3.36826,0.0077 6.89314,-0.07665 10.02384,-1.455899 -3.41042,-1.96919 -6.79513,-5.094548 -7.78298,-9.168309 -1.50219,-5.352718 1.56446,-11.074355 6.16917,-13.857107 1.59885,-0.647162 1.76757,-1.4062392 0.0413,-1.6906192 -2.49478,-0.822944 -5.15933,-0.793301 -7.75514,-0.776666 z"
       id="path862" />
    <path
       style="fill:#be4b3c;fill-opacity:1;stroke:none;stroke-width:0.928886;stroke-miterlimit:4;stroke-dasharray:none;stop-color:#000000"
       d="m 174.51576,11.09883 c -3.734,2.272618 -7.09728,6.100194 -7.06488,10.703401 -0.0759,4.78779 3.45659,8.873056 7.48969,11.019251 1.42752,1.103046 2.85251,-0.535915 4.00985,-1.243522 4.10856,-2.771582 6.89013,-8.235552 4.98373,-13.107522 -1.35688,-3.676078 -4.50592,-6.514551 -8.00522,-8.106032 -0.47106,0.244806 -0.94211,0.489615 -1.41317,0.734424 z"
       id="path864" />
  </g>
</svg>
